<svg width="187" height="58" viewBox="0 0 187 58" fill="none" xmlns="http://www.w3.org/2000/svg">
<path d="M3.048 34.368V19.632L1.104 19.368V17.808H4.56C4.992 17.808 5.504 17.784 6.096 17.736C7.152 17.672 8.016 17.64 8.688 17.64C10.768 17.64 12.36 18.048 13.464 18.864C14.584 19.68 15.144 21.064 15.144 23.016C15.144 24.232 14.84 25.296 14.232 26.208C13.624 27.104 12.808 27.792 11.784 28.272C10.76 28.752 9.64 28.992 8.424 28.992H7.224C6.632 28.992 6.224 29.008 6 29.04V34.368L9.024 34.752V36H0.888V34.752L3.048 34.368ZM6 27.384C6.512 27.464 7.272 27.504 8.28 27.504C9.464 27.504 10.408 27.152 11.112 26.448C11.816 25.744 12.168 24.592 12.168 22.992C12.168 21.712 11.792 20.744 11.04 20.088C10.304 19.432 9.264 19.12 7.92 19.152C7.008 19.216 6.368 19.288 6 19.368V27.384ZM18.5688 34.512V25.656L16.9128 24.672V23.664L20.4648 22.608L21.1368 22.824V24.816C21.3928 24.288 21.9128 23.792 22.6968 23.328C23.4968 22.848 24.2328 22.608 24.9048 22.608C25.5128 22.608 25.9048 22.64 26.0808 22.704V25.584C25.5048 25.296 24.8168 25.152 24.0168 25.152C23.0248 25.152 22.2008 25.368 21.5448 25.8V34.464L24.6408 34.776V36H16.8408V34.776L18.5688 34.512ZM34.3649 22.488C36.3489 22.488 37.8609 23.096 38.9009 24.312C39.9409 25.512 40.4609 27.12 40.4609 29.136C40.4609 30.544 40.1809 31.792 39.6209 32.88C39.0609 33.952 38.2929 34.792 37.3169 35.4C36.3409 35.992 35.2369 36.288 34.0049 36.288C31.9409 36.288 30.3809 35.656 29.3249 34.392C28.2689 33.112 27.7409 31.448 27.7409 29.4C27.7409 27.992 28.0369 26.768 28.6289 25.728C29.2209 24.688 30.0129 23.888 31.0049 23.328C32.0129 22.768 33.1329 22.488 34.3649 22.488ZM34.1249 23.928C31.9649 23.928 30.8849 25.64 30.8849 29.064C30.8849 30.632 31.1569 31.976 31.7009 33.096C32.2449 34.216 33.0529 34.784 34.1249 34.8C35.2929 34.816 36.1169 34.352 36.5969 33.408C37.0929 32.464 37.3409 31.112 37.3409 29.352C37.3409 27.736 37.0769 26.432 36.5489 25.44C36.0369 24.432 35.2289 23.928 34.1249 23.928ZM44.6443 32.424L45.2443 33.816C45.6763 34.2 46.0763 34.48 46.4443 34.656C46.8123 34.816 47.2683 34.896 47.8123 34.896C48.5963 34.896 49.2123 34.736 49.6603 34.416C50.1083 34.08 50.3323 33.592 50.3323 32.952C50.3163 32.472 50.0923 32.08 49.6603 31.776C49.2443 31.472 48.5883 31.12 47.6923 30.72L47.0923 30.456C45.8923 29.88 44.9563 29.264 44.2843 28.608C43.6123 27.952 43.2763 27.144 43.2763 26.184C43.2763 25.384 43.5323 24.704 44.0443 24.144C44.5563 23.584 45.2043 23.168 45.9883 22.896C46.7883 22.624 47.6043 22.488 48.4363 22.488C49.1403 22.488 49.8523 22.568 50.5723 22.728C51.2923 22.872 51.8683 23.048 52.3003 23.256V26.04H50.9323L50.3803 24.672C49.8203 24.08 49.1803 23.784 48.4603 23.784C47.7723 23.784 47.2123 23.928 46.7803 24.216C46.3643 24.488 46.1563 24.904 46.1563 25.464C46.1563 25.88 46.2923 26.248 46.5643 26.568C46.8523 26.872 47.1723 27.12 47.5243 27.312C47.8923 27.504 48.5243 27.816 49.4203 28.248C50.2523 28.632 50.9083 28.976 51.3883 29.28C51.8843 29.584 52.3003 29.976 52.6363 30.456C52.9723 30.92 53.1403 31.496 53.1403 32.184C53.1403 33.528 52.6203 34.552 51.5803 35.256C50.5403 35.944 49.2123 36.288 47.5963 36.288C46.8603 36.288 46.1003 36.192 45.3163 36C44.5483 35.824 43.8763 35.576 43.3003 35.256V32.424H44.6443ZM62.0131 22.488C63.5491 22.488 64.7411 22.944 65.5891 23.856C66.4531 24.768 66.8851 26.048 66.8851 27.696C66.8851 28.4 66.8291 29.064 66.7171 29.688H58.2451C58.2771 31.176 58.6531 32.336 59.3731 33.168C60.1091 34 61.1491 34.416 62.4931 34.416C63.0851 34.416 63.7171 34.352 64.3891 34.224C65.0611 34.08 65.6051 33.904 66.0211 33.696L66.5251 34.848C66.0131 35.296 65.2691 35.656 64.2931 35.928C63.3171 36.184 62.3491 36.312 61.3891 36.312C59.4371 36.296 57.9251 35.688 56.8531 34.488C55.7811 33.288 55.2451 31.656 55.2451 29.592C55.2451 28.232 55.5331 27.016 56.1091 25.944C56.6851 24.856 57.4851 24.008 58.5091 23.4C59.5331 22.792 60.7011 22.488 62.0131 22.488ZM61.4611 23.904C60.5811 23.904 59.8531 24.264 59.2771 24.984C58.7171 25.704 58.3811 26.744 58.2691 28.104H63.8851C63.9011 27.928 63.9091 27.664 63.9091 27.312C63.9091 26.128 63.6531 25.296 63.1411 24.816C62.8211 24.208 62.2611 23.904 61.4611 23.904ZM76.0378 22.536C76.6938 22.504 77.3658 22.544 78.0538 22.656C78.7578 22.768 79.2778 22.92 79.6138 23.112V26.28H78.1258L77.4058 24.528C77.0058 24.224 76.4138 24.072 75.6298 24.072C74.5898 24.072 73.7418 24.504 73.0858 25.368C72.4458 26.232 72.1258 27.4 72.1258 28.872C72.1258 30.056 72.3098 31.064 72.6778 31.896C73.0618 32.728 73.5658 33.352 74.1898 33.768C74.8138 34.184 75.4938 34.392 76.2298 34.392C76.8378 34.392 77.4618 34.328 78.1018 34.2C78.7418 34.056 79.2218 33.88 79.5418 33.672L80.0458 34.848C79.5338 35.296 78.8378 35.648 77.9578 35.904C77.0938 36.144 76.1578 36.264 75.1497 36.264C73.9178 36.264 72.8538 35.984 71.9578 35.424C71.0618 34.864 70.3738 34.088 69.8938 33.096C69.4298 32.088 69.1978 30.944 69.1978 29.664C69.1978 28.256 69.4938 27.024 70.0858 25.968C70.6778 24.896 71.4858 24.064 72.5098 23.472C73.5498 22.88 74.7258 22.568 76.0378 22.536ZM81.8591 24.504V23.4L85.4111 22.608L85.8911 22.824V30.912C85.8911 32.16 86.0431 33.056 86.3471 33.6C86.6671 34.128 87.2671 34.392 88.1471 34.392C88.6591 34.392 89.1871 34.28 89.7311 34.056C90.2911 33.832 90.6991 33.6 90.9551 33.36V25.152L89.4911 24.624V23.424L93.4031 22.608L93.8351 22.8V34.776H95.2271V35.832C94.9871 35.976 94.5951 36.104 94.0511 36.216C93.5071 36.328 93.0351 36.384 92.6351 36.384C92.2031 36.384 91.8591 36.288 91.6031 36.096C91.3631 35.92 91.2431 35.648 91.2431 35.28V34.488C90.6831 35.032 90.0271 35.464 89.2751 35.784C88.5231 36.104 87.8031 36.264 87.1151 36.264C85.9631 36.264 85.0911 36.056 84.4991 35.64C83.9231 35.208 83.5391 34.616 83.3471 33.864C83.1551 33.112 83.0511 32.12 83.0351 30.888V25.032L81.8591 24.504ZM99.1141 34.512V25.656L97.4581 24.672V23.664L101.01 22.608L101.682 22.824V24.816C101.938 24.288 102.458 23.792 103.242 23.328C104.042 22.848 104.778 22.608 105.45 22.608C106.058 22.608 106.45 22.64 106.626 22.704V25.584C106.05 25.296 105.362 25.152 104.562 25.152C103.57 25.152 102.746 25.368 102.09 25.8V34.464L105.186 34.776V36H97.3861V34.776L99.1141 34.512ZM110.23 32.424L110.83 33.816C111.262 34.2 111.662 34.48 112.03 34.656C112.398 34.816 112.854 34.896 113.398 34.896C114.182 34.896 114.798 34.736 115.246 34.416C115.694 34.08 115.918 33.592 115.918 32.952C115.902 32.472 115.678 32.08 115.246 31.776C114.83 31.472 114.174 31.12 113.278 30.72L112.678 30.456C111.478 29.88 110.542 29.264 109.87 28.608C109.198 27.952 108.862 27.144 108.862 26.184C108.862 25.384 109.118 24.704 109.63 24.144C110.142 23.584 110.79 23.168 111.574 22.896C112.374 22.624 113.19 22.488 114.022 22.488C114.726 22.488 115.438 22.568 116.158 22.728C116.878 22.872 117.454 23.048 117.886 23.256V26.04H116.518L115.966 24.672C115.406 24.08 114.766 23.784 114.046 23.784C113.358 23.784 112.798 23.928 112.366 24.216C111.95 24.488 111.742 24.904 111.742 25.464C111.742 25.88 111.878 26.248 112.15 26.568C112.438 26.872 112.758 27.12 113.11 27.312C113.478 27.504 114.11 27.816 115.006 28.248C115.838 28.632 116.494 28.976 116.974 29.28C117.47 29.584 117.886 29.976 118.222 30.456C118.558 30.92 118.726 31.496 118.726 32.184C118.726 33.528 118.206 34.552 117.166 35.256C116.126 35.944 114.798 36.288 113.182 36.288C112.446 36.288 111.686 36.192 110.902 36C110.134 35.824 109.462 35.576 108.886 35.256V32.424H110.23ZM127.599 22.488C129.135 22.488 130.327 22.944 131.175 23.856C132.039 24.768 132.471 26.048 132.471 27.696C132.471 28.4 132.415 29.064 132.303 29.688H123.831C123.863 31.176 124.239 32.336 124.959 33.168C125.695 34 126.735 34.416 128.079 34.416C128.671 34.416 129.303 34.352 129.975 34.224C130.647 34.08 131.191 33.904 131.607 33.696L132.111 34.848C131.599 35.296 130.855 35.656 129.879 35.928C128.903 36.184 127.935 36.312 126.975 36.312C125.023 36.296 123.511 35.688 122.439 34.488C121.367 33.288 120.831 31.656 120.831 29.592C120.831 28.232 121.119 27.016 121.695 25.944C122.271 24.856 123.071 24.008 124.095 23.4C125.119 22.792 126.287 22.488 127.599 22.488ZM127.047 23.904C126.167 23.904 125.439 24.264 124.863 24.984C124.303 25.704 123.967 26.744 123.855 28.104H129.471C129.487 27.928 129.495 27.664 129.495 27.312C129.495 26.128 129.239 25.296 128.727 24.816C128.407 24.208 127.847 23.904 127.047 23.904Z" fill="#252B42"/>
</svg>
